<?xml version="1.0" standalone="no"?>
<!DOCTYPE svg PUBLIC "-//W3C//DTD SVG 20010904//EN"
 "http://www.w3.org/TR/2001/REC-SVG-20010904/DTD/svg10.dtd">
<svg version="1.0" xmlns="http://www.w3.org/2000/svg"
 width="1214.000000pt" height="1214.000000pt" viewBox="0 0 1214.000000 1214.000000"
 preserveAspectRatio="xMidYMid meet">
<metadata>
Created by potrace 1.14, written by Peter Selinger 2001-2017
</metadata>
<g transform="translate(0.000000,1214.000000) scale(0.100000,-0.100000)"
fill="#000000" stroke="none">
<path d="M5655 9980 c-435 -13 -718 -40 -1185 -116 -194 -31 -671 -155 -750
-194 -8 -5 -49 -20 -90 -35 -184 -67 -512 -242 -661 -353 -177 -132 -234 -183
-352 -315 -84 -94 -122 -139 -145 -173 -84 -127 -122 -186 -122 -191 0 -3 -13
-27 -29 -52 -15 -26 -32 -58 -35 -72 -4 -13 -20 -49 -35 -79 -34 -66 -140
-394 -175 -540 -45 -188 -84 -433 -126 -780 -27 -233 -33 -292 -45 -455 -3
-38 -9 -104 -15 -145 -5 -41 -11 -129 -14 -195 -8 -159 -16 -222 -30 -233 -6
-5 -58 -19 -116 -32 -317 -66 -700 -208 -897 -333 -24 -15 -45 -27 -47 -27 -8
0 -171 -112 -230 -159 -113 -88 -217 -186 -266 -251 -19 -25 -37 -47 -40 -50
-20 -17 -77 -113 -120 -202 -146 -304 -163 -633 -50 -953 34 -95 126 -272 161
-311 10 -11 19 -24 19 -28 0 -8 51 -76 80 -107 8 -8 29 -31 46 -50 39 -42 111
-109 189 -174 33 -27 62 -52 65 -55 31 -34 359 -237 473 -291 34 -17 69 -34
77 -39 8 -5 38 -19 65 -31 28 -11 64 -27 80 -34 17 -7 84 -34 150 -60 66 -26
135 -53 153 -61 35 -15 508 -174 529 -178 7 -1 16 -5 19 -9 4 -4 15 -7 25 -7
10 0 53 -11 96 -24 247 -76 757 -196 984 -232 57 -9 142 -22 189 -29 47 -8
112 -19 145 -24 33 -6 98 -16 145 -21 47 -6 119 -14 160 -20 346 -45 721 -75
1032 -83 60 -1 108 -4 108 -7 0 -10 55 -6 62 5 5 6 8 5 8 -4 0 -11 3 -11 16 0
13 10 17 10 24 0 4 -8 13 -10 20 -6 22 13 100 17 100 5 0 -6 4 -8 10 -5 9 5
42 8 243 20 46 2 67 0 67 -8 0 -9 2 -9 8 -1 6 10 40 13 224 18 31 0 54 4 53 7
-2 3 33 6 78 7 45 1 110 4 144 6 35 3 65 1 68 -5 9 -14 25 -11 19 4 -2 7 3 13
13 14 143 12 484 46 536 54 38 5 72 7 76 5 4 -3 27 0 52 6 24 5 80 14 124 18
102 10 416 56 475 69 25 5 86 14 135 20 50 6 149 22 220 36 87 17 131 22 133
15 3 -7 9 -5 16 4 6 8 27 17 46 19 20 2 40 6 45 9 6 3 26 9 45 12 51 10 168
37 224 52 27 8 52 11 57 8 5 -3 9 -1 9 4 0 6 30 15 67 22 85 14 166 35 192 50
12 6 26 8 31 5 6 -3 10 -2 10 4 0 8 45 19 105 26 6 1 24 7 40 14 17 7 59 19
95 26 36 8 84 21 108 29 24 9 51 18 60 20 9 1 39 13 65 24 27 12 56 22 65 22
9 0 44 11 76 25 33 13 63 22 68 19 4 -3 8 -1 8 4 0 10 67 32 98 32 12 0 25 6
29 13 4 7 35 21 68 31 33 10 69 22 80 27 11 4 47 18 80 29 33 12 76 30 95 40
19 10 51 21 70 25 19 4 53 16 75 25 22 10 51 21 65 25 14 4 45 20 70 35 25 16
62 32 82 35 20 4 51 18 69 31 18 13 41 24 51 24 10 0 18 5 18 10 0 6 9 10 20
10 11 0 36 10 57 22 21 11 94 50 163 86 202 105 253 133 285 153 17 10 41 24
55 31 37 18 104 59 245 148 236 151 412 271 450 306 17 16 48 43 70 60 105 82
224 220 313 359 37 58 96 199 109 262 14 61 14 80 3 133 -31 145 -124 219
-415 329 -44 17 -105 37 -135 45 -119 33 -478 74 -807 92 -137 8 -149 14 -139
68 4 18 9 62 11 97 3 35 10 102 15 149 6 47 14 153 20 235 6 83 12 166 15 185
2 19 7 73 10 120 3 47 8 126 11 175 3 50 9 122 14 160 19 150 30 872 16 1045
-26 311 -77 558 -160 773 -104 270 -242 476 -465 697 -228 225 -537 407 -956
563 -109 40 -252 87 -330 108 -344 90 -358 94 -522 129 -83 18 -387 69 -623
105 -513 78 -1386 123 -2035 105z"/>
</g>
</svg>
